<?xml version="1.0" encoding="iso-8859-1"?>
<!-- Generator: Adobe Illustrator 18.1.1, SVG Export Plug-In . SVG Version: 6.00 Build 0)  -->
<svg version="1.1" id="Capa_1" xmlns="http://www.w3.org/2000/svg" xmlns:xlink="http://www.w3.org/1999/xlink" x="0px" y="0px"
	 viewBox="0 0 17.531 17.531" style="enable-background:new 0 0 17.531 17.531;" xml:space="preserve">
<g>
	<g>
		<circle style="fill:#030104;" cx="8.931" cy="3.035" r="3.035"/>
		<path style="fill:#030104;" d="M11.611,6.346H9.436C9.629,6.532,9.391,7.16,9.233,7.508c-0.308-0.055-0.626-0.05-0.935,0.013
			C8.143,7.173,7.896,6.534,8.09,6.346H5.976c-4.034,0.073-3.89,3.035-3.89,3.035l-0.002,6.915h0.004
			c0,0.016-0.001,0.033-0.001,0.049c0,0.656,0.532,1.186,1.186,1.186c0.655,0,1.186-0.529,1.186-1.186
			c0-0.016-0.003-0.033-0.003-0.049h0.003V9.899H5.2l-0.002,7.36l7.107,0.012l-0.002-7.402h0.771v6.427h0.002c0,0,0,0.004,0,0.008
			c0,0.654,0.531,1.186,1.188,1.186c0.652,0,1.183-0.531,1.183-1.186c0-0.004,0-0.008,0-0.008V9.381
			C15.184,6.299,11.611,6.346,11.611,6.346z M8.787,14.278l-0.779-0.975l0.393-5.141c0.238-0.043,0.483-0.046,0.725-0.01l0.01,0.107
			l0.189,2.487l0.195,2.557L8.787,14.278z"/>
	</g>
</g>
<g>
</g>
<g>
</g>
<g>
</g>
<g>
</g>
<g>
</g>
<g>
</g>
<g>
</g>
<g>
</g>
<g>
</g>
<g>
</g>
<g>
</g>
<g>
</g>
<g>
</g>
<g>
</g>
<g>
</g>
</svg>
