<svg id="Capa_1" enable-background="new 0 0 512 512" height="512" viewBox="0 0 512 512" width="512" xmlns="http://www.w3.org/2000/svg"><g><path d="m301 226c0-24.813-20.187-45-45-45s-45 20.187-45 45 20.187 45 45 45 45-20.187 45-45zm-45 15c-8.271 0-15-6.729-15-15s6.729-15 15-15 15 6.729 15 15-6.729 15-15 15z"/><path d="m437 362c-15.264 0-29.47 4.594-41.329 12.457l-34.242-34.241c18.493-23.104 29.571-52.389 29.571-84.216s-11.078-61.112-29.571-84.216l34.242-34.241c11.859 7.863 26.065 12.457 41.329 12.457 41.355 0 75-33.645 75-75s-33.645-75-75-75-75 33.645-75 75c0 15.264 4.594 29.47 12.458 41.329l-34.242 34.242c-23.104-18.493-52.389-29.571-84.216-29.571s-61.112 11.078-84.216 29.571l-34.242-34.242c7.864-11.859 12.458-26.065 12.458-41.329 0-41.355-33.645-75-75-75s-75 33.645-75 75 33.645 75 75 75c15.264 0 29.47-4.594 41.329-12.457l34.242 34.241c-18.493 23.104-29.571 52.389-29.571 84.216s11.078 61.112 29.571 84.216l-34.242 34.241c-11.859-7.863-26.065-12.457-41.329-12.457-41.355 0-75 33.645-75 75s33.645 75 75 75 75-33.645 75-75c0-15.264-4.594-29.47-12.458-41.33l34.242-34.241c23.104 18.493 52.389 29.571 84.216 29.571s61.112-11.078 84.216-29.571l34.242 34.241c-7.864 11.86-12.458 26.066-12.458 41.33 0 41.355 33.645 75 75 75s75-33.645 75-75-33.645-75-75-75zm0-332c24.813 0 45 20.187 45 45s-20.187 45-45 45-45-20.187-45-45 20.187-45 45-45zm-76 226c0 29.317-12.082 55.86-31.522 74.928-6.996-34.157-37.284-59.928-73.478-59.928s-66.482 25.771-73.478 59.928c-19.44-19.068-31.522-45.611-31.522-74.928 0-57.897 47.103-105 105-105s105 47.103 105 105zm-286-136c-24.813 0-45-20.187-45-45s20.187-45 45-45 45 20.187 45 45-20.187 45-45 45zm0 362c-24.813 0-45-20.187-45-45s20.187-45 45-45 45 20.187 45 45-20.187 45-45 45zm136-131.145v-4.855c0-24.813 20.187-45 45-45s45 20.187 45 45v4.855c-13.647 6.5-28.905 10.145-45 10.145s-31.353-3.645-45-10.145zm226 131.145c-24.813 0-45-20.187-45-45s20.187-45 45-45 45 20.187 45 45-20.187 45-45 45z"/></g></svg>