<?xml version="1.0" encoding="iso-8859-1"?>
<!-- Generator: Adobe Illustrator 18.1.1, SVG Export Plug-In . SVG Version: 6.00 Build 0)  -->
<svg version="1.1" id="Capa_1" xmlns="http://www.w3.org/2000/svg" xmlns:xlink="http://www.w3.org/1999/xlink" x="0px" y="0px"
	 viewBox="0 0 20.47 20.47" style="enable-background:new 0 0 20.47 20.47;" xml:space="preserve">
<g>
	<g>
		<g>
			<ellipse style="fill:#030104;" cx="8.049" cy="1.89" rx="0.495" ry="0.444"/>
		</g>
		<g>
			<ellipse style="fill:#030104;" cx="10.304" cy="0.761" rx="0.846" ry="0.761"/>
		</g>
		<g>
			<ellipse style="fill:#030104;" cx="12.746" cy="1.916" rx="0.494" ry="0.444"/>
		</g>
		<g>
			<ellipse style="fill:#030104;" cx="14.64" cy="1.751" rx="0.846" ry="0.761"/>
		</g>
		<g>
			<path style="fill:#030104;" d="M6.192,2.54c0.469,0,0.848-0.342,0.848-0.761c0-0.422-0.379-0.762-0.848-0.762
				c-0.465,0-0.845,0.34-0.845,0.762C5.346,2.198,5.726,2.54,6.192,2.54z"/>
		</g>
		<g>
			<path style="fill:#030104;" d="M6.52,2.58l0.737,4.063c0,0,0.101-0.116,0.287-0.282c0.76-0.679,2.944-2.184,5.532,0.036
				c0.091,0.078,0.182,0.159,0.273,0.246l1.016-3.958c0,0-0.113-0.523-0.678-0.305l-1.158,1.043l0.098-1.063
				c0,0-0.16-0.239-0.368-0.045l-0.703,0.896l-0.914-1.44c0,0-0.251-0.257-0.677,0L9.158,3.043C9.122,3.059,9.077,3.08,9.026,3.107
				L8.469,2.314c0,0-0.155-0.244-0.349,0.016l0.064,1.158L7.041,2.38C7.041,2.38,6.688,2.237,6.52,2.58z"/>
		</g>
		<g>
			<path style="fill:#030104;" d="M10.304,20.47L10.304,20.47c-0.123,0-0.248-0.001-0.372-0.004
				c-0.16-0.008-3.646-0.193-5.951-1.217c-0.17-0.063-0.576-0.31-0.591-1.193c0.005-0.158,0.132-3.401,1.168-4.938
				c0.046-0.063,0.384-0.502,1.138-0.793c1.056-0.321,2.064-0.792,2.186-1.016l0.322-1.225l0.453,1.198
				c0.168,0.432,0.806,1.664,1.51,1.664c0.489,0,1.066-0.609,1.627-1.714l0.745-1.469l0.032,1.58
				c0.045,0.061,0.232,0.258,0.859,0.479c0.368,0.115,2.291,0.76,2.691,1.649c0.051,0.115,1.193,2.753,0.915,5.161
				c-0.005,0.099-0.078,0.413-0.584,0.735l-0.062,0.031C16.287,19.444,13.8,20.47,10.304,20.47z M4.304,18.493
				c2.165,0.966,5.623,1.149,5.657,1.151c0.107,0.002,0.226,0.003,0.342,0.003c3.115,0,5.442-0.876,5.739-0.993
				c0.115-0.077,0.165-0.135,0.183-0.159c0.226-2.195-0.844-4.663-0.854-4.688c-0.182-0.404-1.421-0.958-2.199-1.205
				c-0.427-0.149-0.727-0.309-0.938-0.46c-0.649,1.094-1.328,1.627-2.065,1.627c-0.976,0.001-1.661-0.965-2.013-1.619
				c-0.592,0.421-1.548,0.758-2.191,0.952c-0.5,0.194-0.734,0.49-0.736,0.493c-0.892,1.324-1.014,4.438-1.015,4.469
				C4.218,18.321,4.275,18.452,4.304,18.493z"/>
		</g>
		<g>
			<path style="fill:#030104;" d="M7.486,8.668c0.043,0.277,0.16,0.398,0.229,0.449c0.17,1.401,1.375,2.853,2.469,2.853
				c1.257,0,2.452-1.526,2.638-2.853c0.072-0.051,0.188-0.172,0.23-0.449c0,0,0.268-0.961-0.088-0.857
				c0.028-0.085,0.072-0.228,0.111-0.405c-2.588-2.221-4.772-0.715-5.532-0.037C7.564,7.513,7.588,7.664,7.62,7.83
				C7.196,7.63,7.486,8.668,7.486,8.668z"/>
		</g>
	</g>
</g>
<g>
</g>
<g>
</g>
<g>
</g>
<g>
</g>
<g>
</g>
<g>
</g>
<g>
</g>
<g>
</g>
<g>
</g>
<g>
</g>
<g>
</g>
<g>
</g>
<g>
</g>
<g>
</g>
<g>
</g>
</svg>
